<svg xmlns="http://www.w3.org/2000/svg" xmlns:xlink="http://www.w3.org/1999/xlink" width="800" height="400" viewBox="0 0 800 400"><defs><clipPath id="b"><rect width="800" height="400"/></clipPath></defs><g id="a" clip-path="url(#b)"><rect width="800" height="400" fill="#a968ab"/><text transform="translate(521 96)" fill="#fff" font-size="37" font-family="SegoeUI-Light, Segoe UI" font-weight="300"><tspan x="0" y="0">Optimize </tspan><tspan x="0" y="40">your costs</tspan></text><text transform="translate(542 186)" fill="#fff" font-size="16" font-family="SegoeUI-Light, Segoe UI" font-weight="300"><tspan x="0" y="17">Know present value of your staff &amp; </tspan><tspan x="0" y="41">belongings</tspan><tspan x="0" y="75">Decide when to buy or to sell them</tspan><tspan x="0" y="109">Easily plan your expenses</tspan><tspan x="0" y="143">Control your finance results</tspan></text><g transform="translate(-570 -280)"><path d="M116.365-20,374.912,127.741,202.547,226.235-56,78.494Z" transform="translate(679 438.806)" fill="#c7d7ec"/><path d="M0,58.494,172.365-40V58.494L0,156.988Z" transform="translate(623 360.312)" fill="#e4f1eb"/><path d="M0,0,258.547,147.741v98.494L0,98.494Z" transform="translate(795.365 320.312)" fill="#e4f1eb"/><path d="M11.318,0l55.4,30.779L34.4,49.247-21,18.468Z" transform="translate(784.046 340.318)" fill="#c8c8c8"/><path d="M16,39.091,102.182-4l86.182,43.091L102.182,88.338Z" transform="translate(693.182 496.676)" fill="#fff"/><path d="M7,2.468,39.318-16V64.026L7,82.494Z" transform="translate(811.449 387.098)" fill="#c7c7c7"/><path d="M0,0,27.7,15.39V95.416L0,80.026Z" transform="translate(763.046 358.786)" fill="#fff"/><path d="M0,0,27.7,15.39V95.416L0,80.026Z" transform="translate(790.748 374.176)" fill="#d4d4cc"/><g transform="translate(701.182 539.988)" fill="#c7c7c7"><path d="M 93.68233489990234 74.94425964355469 L 8.500006675720215 26.26864242553711 L 8.500006675720215 -34.13840484619141 L 93.68233489990234 14.53720951080322 L 93.68233489990234 74.94425964355469 Z" stroke="none"/><path d="M 8.999992370605469 -33.27681350708008 L 8.999992370605469 25.97847747802734 L 93.18233489990234 74.08266448974609 L 93.18233489990234 14.82737350463867 L 8.999992370605469 -33.27681350708008 M 7.999992370605469 -34.99999618530273 L 94.18233489990234 14.24704933166504 L 94.18233489990234 75.80584716796875 L 7.999992370605469 26.55880355834961 L 7.999992370605469 -34.99999618530273 Z" stroke="none" fill="#c7c7c7"/></g><g transform="translate(793.365 567.768)" fill="#c7c7c7"><path d="M 2.499996900558472 47.16485595703125 L 2.499996900558472 17.53720474243164 L 87.68232727050781 -31.1384105682373 L 87.68232727050781 -1.510759830474854 L 2.499996900558472 47.16485595703125 Z" stroke="none"/><path d="M 2.999999046325684 46.30326080322266 L 87.18232727050781 -1.800928592681885 L 87.18232727050781 -30.27681541442871 L 2.999999046325684 17.82737350463867 L 2.999999046325684 46.30326080322266 M 1.999998927116394 48.02644729614258 L 1.999998927116394 17.24704551696777 L 88.18232727050781 -32 L 88.18232727050781 -1.220600843429565 L 1.999998927116394 48.02644729614258 Z" stroke="none" fill="#c6c6c6"/></g><g transform="translate(893.859 396.65)" fill="#555353"><path d="M 54.90292358398438 82.86492156982422 L 0.5000017881393433 52.64107894897461 L 0.5000017881393433 16.84976005554199 L 54.90292358398438 47.07360458374023 L 54.90292358398438 82.86492156982422 Z" stroke="none"/><path d="M 1 17.69951629638672 L 1 52.34687805175781 L 54.40292358398438 82.01516723632813 L 54.40292358398438 47.36780548095703 L 1 17.69951629638672 M 0 16 L 55.40292358398438 46.77939987182617 L 55.40292358398438 83.71468353271484 L 0 52.93528366088867 L 0 16 Z" stroke="none" fill="#707070"/></g><path d="M4,6.468,34.779-12,53.247-5.844,22.468,12.624Z" transform="translate(643.624 480.053)" fill="#c7c7c7"/><path d="M0,6.468,30.779-12V12.624L0,31.091Z" transform="translate(647.624 443.118)" fill="#dfdada"/><path d="M0,0,18.468,6.156V30.779L0,24.624Z" transform="translate(678.403 461.897)" fill="#c7c7c7"/><path d="M4,6.468,34.779-12,53.247-5.844,22.468,12.624Z" transform="translate(643.624 473.897)" fill="#c7c7c7"/><path d="M0,0,18.468,6.156V30.779L0,24.624Z" transform="translate(647.624 480.365)" fill="#c7c7c7"/><path d="M116.365-20,374.912,127.741,202.547,226.235-56,78.494Z" transform="translate(679 438.806)" fill="#8eafb9"/><path d="M0,58.494,172.365-40V58.494L0,156.988Z" transform="translate(623 360.312)" fill="#527733"/><path d="M0,0,258.547,147.741v98.494L0,98.494Z" transform="translate(795.365 320.312)" fill="#80b157"/><path d="M11.318,0l55.4,30.779L34.4,49.247-21,18.468Z" transform="translate(784.046 340.318)" fill="#c8c8c8"/><path d="M16,39.091,102.182-4l86.182,43.091L102.182,88.338Z" transform="translate(693.182 496.676)" fill="#fff"/><path d="M7,2.468,39.318-16V64.026L7,82.494Z" transform="translate(811.449 387.098)" fill="#c7c7c7"/><path d="M0,0,27.7,15.39V95.416L0,80.026Z" transform="translate(763.046 358.786)" fill="#fff"/><path d="M0,0,27.7,15.39V95.416L0,80.026Z" transform="translate(790.748 374.176)" fill="#fcf7e4"/><g transform="translate(701.182 539.988)" fill="#ddd"><path d="M 93.68233489990234 74.94425964355469 L 8.500006675720215 26.26864242553711 L 8.500006675720215 -34.13840484619141 L 93.68233489990234 14.53720951080322 L 93.68233489990234 74.94425964355469 Z" stroke="none"/><path d="M 8.999992370605469 -33.27681350708008 L 8.999992370605469 25.97847747802734 L 93.18233489990234 74.08266448974609 L 93.18233489990234 14.82737350463867 L 8.999992370605469 -33.27681350708008 M 7.999992370605469 -34.99999618530273 L 94.18233489990234 14.24704933166504 L 94.18233489990234 75.80584716796875 L 7.999992370605469 26.55880355834961 L 7.999992370605469 -34.99999618530273 Z" stroke="none" fill="#c7c7c7"/></g><g transform="translate(793.365 567.768)" fill="#ddd"><path d="M 2.499996900558472 47.16485595703125 L 2.499996900558472 17.53720474243164 L 87.68232727050781 -31.1384105682373 L 87.68232727050781 -1.510759830474854 L 2.499996900558472 47.16485595703125 Z" stroke="none"/><path d="M 2.999999046325684 46.30326080322266 L 87.18232727050781 -1.800928592681885 L 87.18232727050781 -30.27681541442871 L 2.999999046325684 17.82737350463867 L 2.999999046325684 46.30326080322266 M 1.999998927116394 48.02644729614258 L 1.999998927116394 17.24704551696777 L 88.18232727050781 -32 L 88.18232727050781 -1.220600843429565 L 1.999998927116394 48.02644729614258 Z" stroke="none" fill="#c6c6c6"/></g><g transform="translate(893.859 396.65)" fill="#555353"><path d="M 54.90292358398438 82.86492156982422 L 0.5000017881393433 52.64107894897461 L 0.5000017881393433 16.84976005554199 L 54.90292358398438 47.07360458374023 L 54.90292358398438 82.86492156982422 Z" stroke="none"/><path d="M 1 17.69951629638672 L 1 52.34687805175781 L 54.40292358398438 82.01516723632813 L 54.40292358398438 47.36780548095703 L 1 17.69951629638672 M 0 16 L 55.40292358398438 46.77939987182617 L 55.40292358398438 83.71468353271484 L 0 52.93528366088867 L 0 16 Z" stroke="none" fill="#707070"/></g><path d="M4,6.468,34.779-12,53.247-5.844,22.468,12.624Z" transform="translate(643.624 480.053)" fill="#c7c7c7"/><path d="M0,6.468,30.779-12V12.624L0,31.091Z" transform="translate(647.624 443.118)" fill="#dfdada"/><path d="M0,0,18.468,6.156V30.779L0,24.624Z" transform="translate(678.403 461.897)" fill="#c7c7c7"/><path d="M4,6.468,34.779-12,53.247-5.844,22.468,12.624Z" transform="translate(643.624 473.897)" fill="#ddd"/><path d="M0,0,18.468,6.156V30.779L0,24.624Z" transform="translate(647.624 480.365)" fill="#c7c7c7"/><path d="M28.36,8,90.324,38.779,25.687,75.715,3.737,63.4s6.851-3.256,21.546-12.312,3-22.714-6.156-27.7-6.156-6.156-6.156-6.156Z" transform="translate(963.992 506.222)" fill="#ddd"/><path d="M0,36.935,64.637,0V21.546L0,58.481Z" transform="translate(989.275 545.001)" fill="#cdcdc9"/><path d="M38-4,59.546,7.976V29.857L38,17.546Z" transform="translate(929.729 573.625)" fill="#cdcdc9"/><g transform="translate(1015.054 477.91)" fill="#555353"><path d="M 5.5 82.152099609375 L 5.5 54.85277557373047 L 13.73381996154785 27.40670776367188 L 13.73381996154785 54.70603179931641 L 5.5 82.152099609375 Z" stroke="none"/><path d="M 13.23381996154785 30.81345367431641 L 6 54.92618560791016 L 6 78.74535369873047 L 13.23381996154785 54.63262176513672 L 13.23381996154785 30.81345367431641 M 14.23381996154785 24 L 14.23381996154785 54.77940368652344 L 5 85.55880737304688 L 5 54.77940368652344 L 14.23381996154785 24 Z" stroke="none" fill="#707070"/></g><g transform="translate(1018.132 477.91)" fill="#707070"><path d="M 5.5 82.152099609375 L 5.5 54.85277557373047 L 13.73381996154785 27.40670776367188 L 13.73381996154785 54.70603179931641 L 5.5 82.152099609375 Z" stroke="none"/><path d="M 13.23381996154785 30.81345367431641 L 6 54.92618560791016 L 6 78.74535369873047 L 13.23381996154785 54.63262176513672 L 13.23381996154785 30.81345367431641 M 14.23381996154785 24 L 14.23381996154785 54.77940368652344 L 5 85.55880737304688 L 5 54.77940368652344 L 14.23381996154785 24 Z" stroke="none" fill="#707070"/></g><g transform="translate(1020.054 532.69)" fill="#707070" stroke="#707070" stroke-width="1"><rect width="3.078" height="30.779" stroke="none"/><rect x="0.5" y="0.5" width="2.078" height="29.779" fill="none"/></g><g transform="translate(1049.054 497.91)" fill="#707070"><path d="M -26.29406929016113 34.27940368652344 L -28.32798767089844 34.27940368652344 L -19.39416694641113 4.500001907348633 L -17.36024856567383 4.500001907348633 L -26.29406929016113 34.27940368652344 Z" stroke="none"/><path d="M -19.02214241027832 5 L -27.65596389770508 33.77940368652344 L -26.66609382629395 33.77940368652344 L -18.03227233886719 5 L -19.02214241027832 5 M -19.76617813110352 4 L -16.6882381439209 4 L -25.92205810546875 34.77940368652344 L -28.99999809265137 34.77940368652344 L -19.76617813110352 4 Z" stroke="none" fill="#707070"/></g><path d="M0,0,12.312,6.156V30.779L0,24.624Z" transform="translate(976.963 523.456)" fill="#ddd"/><path d="M23.39-2,8,7.234V31.857L23.39,19.546Z" transform="translate(981.275 522.378)" fill="#ddd"/><path d="M27.7,0" transform="translate(915.404 351.091)" fill="none" stroke="#707070" stroke-width="1"/><path d="M27.7,0" transform="translate(1013.898 415.728)" fill="none" stroke="#707070" stroke-width="1"/></g><text transform="translate(522 203)" fill="#fff" font-size="16" font-family="SegoeUI-Light, Segoe UI" font-weight="300"><tspan x="0" y="0">-</tspan></text><text transform="translate(522 259)" fill="#fff" font-size="16" font-family="SegoeUI-Light, Segoe UI" font-weight="300"><tspan x="0" y="0">-</tspan></text><text transform="translate(522 294)" fill="#fff" font-size="16" font-family="SegoeUI-Light, Segoe UI" font-weight="300"><tspan x="0" y="0">-</tspan></text><text transform="translate(522 329)" fill="#fff" font-size="16" font-family="SegoeUI-Light, Segoe UI" font-weight="300"><tspan x="0" y="0">-</tspan></text><g transform="translate(375.872 104.431)" fill="#fff"><path d="M -10.20798492431641 47.23432922363281 L 3.262263059616089 19.65394973754883 L 3.31298303604126 19.55009651184082 L 3.31298303604126 19.43452453613281 L 3.31298303604126 7.368923664093018 C 3.31298303604126 3.581390619277954 6.964982986450195 0.5000038743019104 11.45388984680176 0.5000038743019104 L 80.58114624023438 0.5000038743019104 C 85.07005310058594 0.5000038743019104 88.7220458984375 3.581390619277954 88.7220458984375 7.368923664093018 L 88.7220458984375 34.73921585083008 C 88.7220458984375 38.52674865722656 85.07005310058594 41.60813903808594 80.58114624023438 41.60813903808594 L 11.45388984680176 41.60813903808594 C 6.964982986450195 41.60813903808594 3.31298303604126 38.52674865722656 3.31298303604126 34.73921585083008 L 3.31298303604126 33.51988220214844 L 2.456929683685303 34.38819122314453 L -10.20798492431641 47.23432922363281 Z" stroke="none"/><path d="M 11.45388793945313 1.000003814697266 C 7.240676879882813 1.000003814697266 3.812980651855469 3.857082366943359 3.812980651855469 7.368923187255859 L 3.812980651855469 19.43452453613281 L 3.812980651855469 19.66567039489746 L 3.711540222167969 19.87337684631348 L -8.41595458984375 44.7044677734375 L 2.100875854492188 34.03715133666992 L 3.812980651855469 32.300537109375 L 3.812980651855469 34.73921585083008 C 3.812980651855469 38.25105667114258 7.240676879882813 41.10813903808594 11.45388793945313 41.10813903808594 L 80.58114624023438 41.10813903808594 C 84.79435729980469 41.10813903808594 88.2220458984375 38.25105667114258 88.2220458984375 34.73921585083008 L 88.2220458984375 7.368923187255859 C 88.2220458984375 3.857082366943359 84.79435729980469 1.000003814697266 80.58114624023438 1.000003814697266 L 11.45388793945313 1.000003814697266 M 11.45388793945313 3.814697265625e-06 L 80.58114624023438 3.814697265625e-06 C 85.35338592529297 3.814697265625e-06 89.2220458984375 3.299179077148438 89.2220458984375 7.368923187255859 L 89.2220458984375 34.73921585083008 C 89.2220458984375 38.80896377563477 85.35338592529297 42.10813903808594 80.58114624023438 42.10813903808594 L 11.45388793945313 42.10813903808594 C 6.681648254394531 42.10813903808594 2.812980651855469 38.80896377563477 2.812980651855469 34.73921585083008 L -12 49.76416397094727 L 2.812980651855469 19.43452453613281 L 2.812980651855469 7.368923187255859 C 2.812980651855469 3.299179077148438 6.681648254394531 3.814697265625e-06 11.45388793945313 3.814697265625e-06 Z" stroke="none" fill="#707070"/></g><g transform="translate(-6 85)"><path d="M10.234-13.37c.735-.015,4.368-2.347,4.787-.3.314,1.533-2.577,7.454-2.129,7.564a10.25,10.25,0,0,1,7.693,9.961c0,5.684-4.868,8.067-10.014,8.067S0,9.539,0,3.855A10.35,10.35,0,0,1,7.282-5.99c.452-.147-2.829-5.576-2.275-7.68C5.4-15.146,9.591-13.356,10.234-13.37Z" transform="translate(400 41.511)" fill="#80b157"/><path d="M9.776-66.981v1.148h-.42v-1.126a3.471,3.471,0,0,1-1.762-.431v-.55a3.192,3.192,0,0,0,1.762.528v-3.222a5.215,5.215,0,0,1-1.412-1.048,1.629,1.629,0,0,1-.35-1.048,1.882,1.882,0,0,1,.474-1.277,2.052,2.052,0,0,1,1.288-.668v-.981h.42v.97a3.788,3.788,0,0,1,1.4.232v.555a2.75,2.75,0,0,0-1.4-.323v3.271a4.951,4.951,0,0,1,1.374,1,1.618,1.618,0,0,1,.383,1.075,1.823,1.823,0,0,1-.461,1.266A2.065,2.065,0,0,1,9.776-66.981Zm-.42-7.231a1.468,1.468,0,0,0-.911.474,1.383,1.383,0,0,0-.334.943,1.378,1.378,0,0,0,.248.822,3.226,3.226,0,0,0,1,.779Zm.42,3.831v2.958a1.519,1.519,0,0,0,.927-.471,1.313,1.313,0,0,0,.313-.886,1.351,1.351,0,0,0-.261-.841A3.362,3.362,0,0,0,9.776-70.381Z" transform="translate(400.751 114.624)" fill="#ddd" stroke="#ddd" stroke-width="0.5"/></g><g transform="translate(-159.35 -11.115)"><g transform="translate(582 141.29)"><g transform="translate(0 2.064)" fill="#fce6a8" stroke="#707070" stroke-width="1"><ellipse cx="7.741" cy="3.097" rx="7.741" ry="3.097" stroke="none"/><ellipse cx="7.741" cy="3.097" rx="7.241" ry="2.597" fill="none"/></g><g transform="translate(0 0)" fill="#eeee9b" stroke="#707070" stroke-width="1"><ellipse cx="7.741" cy="3.097" rx="7.741" ry="3.097" stroke="none"/><ellipse cx="7.741" cy="3.097" rx="7.241" ry="2.597" fill="none"/></g><line y1="1.806" transform="translate(0.258 3.355)" fill="none" stroke="#707070" stroke-width="1"/><line y2="2.064" transform="translate(15.224 3.097)" fill="none" stroke="#707070" stroke-width="1"/></g><g transform="translate(582 138.193)"><g transform="translate(0 2.064)" fill="#fce6a8" stroke="#707070" stroke-width="1"><ellipse cx="7.741" cy="3.097" rx="7.741" ry="3.097" stroke="none"/><ellipse cx="7.741" cy="3.097" rx="7.241" ry="2.597" fill="none"/></g><g fill="#eeee9b" stroke="#707070" stroke-width="1"><ellipse cx="7.741" cy="3.097" rx="7.741" ry="3.097" stroke="none"/><ellipse cx="7.741" cy="3.097" rx="7.241" ry="2.597" fill="none"/></g><line y1="1.806" transform="translate(0.258 3.355)" fill="none" stroke="#707070" stroke-width="1"/><line y2="2.064" transform="translate(15.224 3.097)" fill="none" stroke="#707070" stroke-width="1"/></g><g transform="translate(582 135.096)"><g transform="translate(0 2.064)" fill="#fce6a8" stroke="#707070" stroke-width="1"><ellipse cx="7.741" cy="3.097" rx="7.741" ry="3.097" stroke="none"/><ellipse cx="7.741" cy="3.097" rx="7.241" ry="2.597" fill="none"/></g><g fill="#eeee9b" stroke="#707070" stroke-width="1"><ellipse cx="7.741" cy="3.097" rx="7.741" ry="3.097" stroke="none"/><ellipse cx="7.741" cy="3.097" rx="7.241" ry="2.597" fill="none"/></g><line y1="1.806" transform="translate(0.258 3.355)" fill="none" stroke="#707070" stroke-width="1"/><line y2="2.064" transform="translate(15.224 3.097)" fill="none" stroke="#707070" stroke-width="1"/></g><g transform="translate(582 132)"><g transform="translate(0 2.064)" fill="#fce6a8" stroke="#707070" stroke-width="1"><ellipse cx="7.741" cy="3.097" rx="7.741" ry="3.097" stroke="none"/><ellipse cx="7.741" cy="3.097" rx="7.241" ry="2.597" fill="none"/></g><g fill="#eeee9b" stroke="#707070" stroke-width="1"><ellipse cx="7.741" cy="3.097" rx="7.741" ry="3.097" stroke="none"/><ellipse cx="7.741" cy="3.097" rx="7.241" ry="2.597" fill="none"/></g><line y1="1.806" transform="translate(0.258 3.355)" fill="none" stroke="#707070" stroke-width="1"/><line y2="2.064" transform="translate(15.224 3.097)" fill="none" stroke="#707070" stroke-width="1"/></g><path d="M4-.968h9.29V-2L18.45,1.1l-5.161,3.1V3.161H4Z" transform="translate(595.547 140.193)" fill="#eb5b5b"/></g><g transform="translate(263.872 45.431)" fill="#fff"><path d="M -10.20798492431641 47.23432922363281 L 3.262263059616089 19.65394973754883 L 3.31298303604126 19.55009651184082 L 3.31298303604126 19.43452453613281 L 3.31298303604126 7.368923664093018 C 3.31298303604126 3.581390619277954 6.964982986450195 0.5000038743019104 11.45388984680176 0.5000038743019104 L 80.58114624023438 0.5000038743019104 C 85.07005310058594 0.5000038743019104 88.7220458984375 3.581390619277954 88.7220458984375 7.368923664093018 L 88.7220458984375 34.73921585083008 C 88.7220458984375 38.52674865722656 85.07005310058594 41.60813903808594 80.58114624023438 41.60813903808594 L 11.45388984680176 41.60813903808594 C 6.964982986450195 41.60813903808594 3.31298303604126 38.52674865722656 3.31298303604126 34.73921585083008 L 3.31298303604126 33.51988220214844 L 2.456929683685303 34.38819122314453 L -10.20798492431641 47.23432922363281 Z" stroke="none"/><path d="M 11.45388793945313 1.000003814697266 C 7.240676879882813 1.000003814697266 3.812980651855469 3.857082366943359 3.812980651855469 7.368923187255859 L 3.812980651855469 19.43452453613281 L 3.812980651855469 19.66567039489746 L 3.711540222167969 19.87337684631348 L -8.41595458984375 44.7044677734375 L 2.100875854492188 34.03715133666992 L 3.812980651855469 32.300537109375 L 3.812980651855469 34.73921585083008 C 3.812980651855469 38.25105667114258 7.240676879882813 41.10813903808594 11.45388793945313 41.10813903808594 L 80.58114624023438 41.10813903808594 C 84.79435729980469 41.10813903808594 88.2220458984375 38.25105667114258 88.2220458984375 34.73921585083008 L 88.2220458984375 7.368923187255859 C 88.2220458984375 3.857082366943359 84.79435729980469 1.000003814697266 80.58114624023438 1.000003814697266 L 11.45388793945313 1.000003814697266 M 11.45388793945313 3.814697265625e-06 L 80.58114624023438 3.814697265625e-06 C 85.35338592529297 3.814697265625e-06 89.2220458984375 3.299179077148438 89.2220458984375 7.368923187255859 L 89.2220458984375 34.73921585083008 C 89.2220458984375 38.80896377563477 85.35338592529297 42.10813903808594 80.58114624023438 42.10813903808594 L 11.45388793945313 42.10813903808594 C 6.681648254394531 42.10813903808594 2.812980651855469 38.80896377563477 2.812980651855469 34.73921585083008 L -12 49.76416397094727 L 2.812980651855469 19.43452453613281 L 2.812980651855469 7.368923187255859 C 2.812980651855469 3.299179077148438 6.681648254394531 3.814697265625e-06 11.45388793945313 3.814697265625e-06 Z" stroke="none" fill="#707070"/></g><g transform="translate(122.872 139.431)" fill="#fff"><path d="M -10.20798492431641 47.23432922363281 L 3.262263059616089 19.65394973754883 L 3.31298303604126 19.55009651184082 L 3.31298303604126 19.43452453613281 L 3.31298303604126 7.368923664093018 C 3.31298303604126 3.581390619277954 6.964982986450195 0.5000038743019104 11.45388984680176 0.5000038743019104 L 80.58114624023438 0.5000038743019104 C 85.07005310058594 0.5000038743019104 88.7220458984375 3.581390619277954 88.7220458984375 7.368923664093018 L 88.7220458984375 34.73921585083008 C 88.7220458984375 38.52674865722656 85.07005310058594 41.60813903808594 80.58114624023438 41.60813903808594 L 11.45388984680176 41.60813903808594 C 6.964982986450195 41.60813903808594 3.31298303604126 38.52674865722656 3.31298303604126 34.73921585083008 L 3.31298303604126 33.51988220214844 L 2.456929683685303 34.38819122314453 L -10.20798492431641 47.23432922363281 Z" stroke="none"/><path d="M 11.45388793945313 1.000003814697266 C 7.240676879882813 1.000003814697266 3.812980651855469 3.857082366943359 3.812980651855469 7.368923187255859 L 3.812980651855469 19.43452453613281 L 3.812980651855469 19.66567039489746 L 3.711540222167969 19.87337684631348 L -8.41595458984375 44.7044677734375 L 2.100875854492188 34.03715133666992 L 3.812980651855469 32.300537109375 L 3.812980651855469 34.73921585083008 C 3.812980651855469 38.25105667114258 7.240676879882813 41.10813903808594 11.45388793945313 41.10813903808594 L 80.58114624023438 41.10813903808594 C 84.79435729980469 41.10813903808594 88.2220458984375 38.25105667114258 88.2220458984375 34.73921585083008 L 88.2220458984375 7.368923187255859 C 88.2220458984375 3.857082366943359 84.79435729980469 1.000003814697266 80.58114624023438 1.000003814697266 L 11.45388793945313 1.000003814697266 M 11.45388793945313 3.814697265625e-06 L 80.58114624023438 3.814697265625e-06 C 85.35338592529297 3.814697265625e-06 89.2220458984375 3.299179077148438 89.2220458984375 7.368923187255859 L 89.2220458984375 34.73921585083008 C 89.2220458984375 38.80896377563477 85.35338592529297 42.10813903808594 80.58114624023438 42.10813903808594 L 11.45388793945313 42.10813903808594 C 6.681648254394531 42.10813903808594 2.812980651855469 38.80896377563477 2.812980651855469 34.73921585083008 L -12 49.76416397094727 L 2.812980651855469 19.43452453613281 L 2.812980651855469 7.368923187255859 C 2.812980651855469 3.299179077148438 6.681648254394531 3.814697265625e-06 11.45388793945313 3.814697265625e-06 Z" stroke="none" fill="#707070"/></g><g transform="translate(-118 26)"><path d="M10.234-13.37c.735-.015,4.368-2.347,4.787-.3.314,1.533-2.577,7.454-2.129,7.564a10.25,10.25,0,0,1,7.693,9.961c0,5.684-4.868,8.067-10.014,8.067S0,9.539,0,3.855A10.35,10.35,0,0,1,7.282-5.99c.452-.147-2.829-5.576-2.275-7.68C5.4-15.146,9.591-13.356,10.234-13.37Z" transform="translate(400 41.511)" fill="#80b157"/><path d="M9.776-66.981v1.148h-.42v-1.126a3.471,3.471,0,0,1-1.762-.431v-.55a3.192,3.192,0,0,0,1.762.528v-3.222a5.215,5.215,0,0,1-1.412-1.048,1.629,1.629,0,0,1-.35-1.048,1.882,1.882,0,0,1,.474-1.277,2.052,2.052,0,0,1,1.288-.668v-.981h.42v.97a3.788,3.788,0,0,1,1.4.232v.555a2.75,2.75,0,0,0-1.4-.323v3.271a4.951,4.951,0,0,1,1.374,1,1.618,1.618,0,0,1,.383,1.075,1.823,1.823,0,0,1-.461,1.266A2.065,2.065,0,0,1,9.776-66.981Zm-.42-7.231a1.468,1.468,0,0,0-.911.474,1.383,1.383,0,0,0-.334.943,1.378,1.378,0,0,0,.248.822,3.226,3.226,0,0,0,1,.779Zm.42,3.831v2.958a1.519,1.519,0,0,0,.927-.471,1.313,1.313,0,0,0,.313-.886,1.351,1.351,0,0,0-.261-.841A3.362,3.362,0,0,0,9.776-70.381Z" transform="translate(400.751 114.624)" fill="#ddd" stroke="#ddd" stroke-width="0.5"/></g><g transform="translate(-259 120)"><path d="M10.234-13.37c.735-.015,4.368-2.347,4.787-.3.314,1.533-2.577,7.454-2.129,7.564a10.25,10.25,0,0,1,7.693,9.961c0,5.684-4.868,8.067-10.014,8.067S0,9.539,0,3.855A10.35,10.35,0,0,1,7.282-5.99c.452-.147-2.829-5.576-2.275-7.68C5.4-15.146,9.591-13.356,10.234-13.37Z" transform="translate(400 41.511)" fill="#80b157"/><path d="M9.776-66.981v1.148h-.42v-1.126a3.471,3.471,0,0,1-1.762-.431v-.55a3.192,3.192,0,0,0,1.762.528v-3.222a5.215,5.215,0,0,1-1.412-1.048,1.629,1.629,0,0,1-.35-1.048,1.882,1.882,0,0,1,.474-1.277,2.052,2.052,0,0,1,1.288-.668v-.981h.42v.97a3.788,3.788,0,0,1,1.4.232v.555a2.75,2.75,0,0,0-1.4-.323v3.271a4.951,4.951,0,0,1,1.374,1,1.618,1.618,0,0,1,.383,1.075,1.823,1.823,0,0,1-.461,1.266A2.065,2.065,0,0,1,9.776-66.981Zm-.42-7.231a1.468,1.468,0,0,0-.911.474,1.383,1.383,0,0,0-.334.943,1.378,1.378,0,0,0,.248.822,3.226,3.226,0,0,0,1,.779Zm.42,3.831v2.958a1.519,1.519,0,0,0,.927-.471,1.313,1.313,0,0,0,.313-.886,1.351,1.351,0,0,0-.261-.841A3.362,3.362,0,0,0,9.776-70.381Z" transform="translate(400.751 114.624)" fill="#ddd" stroke="#ddd" stroke-width="0.5"/></g><g transform="translate(-271.35 -70.115)"><g transform="translate(582 141.29)"><g transform="translate(0 2.064)" fill="#fce6a8" stroke="#707070" stroke-width="1"><ellipse cx="7.741" cy="3.097" rx="7.741" ry="3.097" stroke="none"/><ellipse cx="7.741" cy="3.097" rx="7.241" ry="2.597" fill="none"/></g><g transform="translate(0 0)" fill="#eeee9b" stroke="#707070" stroke-width="1"><ellipse cx="7.741" cy="3.097" rx="7.741" ry="3.097" stroke="none"/><ellipse cx="7.741" cy="3.097" rx="7.241" ry="2.597" fill="none"/></g><line y1="1.806" transform="translate(0.258 3.355)" fill="none" stroke="#707070" stroke-width="1"/><line y2="2.064" transform="translate(15.224 3.097)" fill="none" stroke="#707070" stroke-width="1"/></g><g transform="translate(582 138.193)"><g transform="translate(0 2.064)" fill="#fce6a8" stroke="#707070" stroke-width="1"><ellipse cx="7.741" cy="3.097" rx="7.741" ry="3.097" stroke="none"/><ellipse cx="7.741" cy="3.097" rx="7.241" ry="2.597" fill="none"/></g><g fill="#eeee9b" stroke="#707070" stroke-width="1"><ellipse cx="7.741" cy="3.097" rx="7.741" ry="3.097" stroke="none"/><ellipse cx="7.741" cy="3.097" rx="7.241" ry="2.597" fill="none"/></g><line y1="1.806" transform="translate(0.258 3.355)" fill="none" stroke="#707070" stroke-width="1"/><line y2="2.064" transform="translate(15.224 3.097)" fill="none" stroke="#707070" stroke-width="1"/></g><g transform="translate(582 135.096)"><g transform="translate(0 2.064)" fill="#fce6a8" stroke="#707070" stroke-width="1"><ellipse cx="7.741" cy="3.097" rx="7.741" ry="3.097" stroke="none"/><ellipse cx="7.741" cy="3.097" rx="7.241" ry="2.597" fill="none"/></g><g fill="#eeee9b" stroke="#707070" stroke-width="1"><ellipse cx="7.741" cy="3.097" rx="7.741" ry="3.097" stroke="none"/><ellipse cx="7.741" cy="3.097" rx="7.241" ry="2.597" fill="none"/></g><line y1="1.806" transform="translate(0.258 3.355)" fill="none" stroke="#707070" stroke-width="1"/><line y2="2.064" transform="translate(15.224 3.097)" fill="none" stroke="#707070" stroke-width="1"/></g><g transform="translate(582 132)"><g transform="translate(0 2.064)" fill="#fce6a8" stroke="#707070" stroke-width="1"><ellipse cx="7.741" cy="3.097" rx="7.741" ry="3.097" stroke="none"/><ellipse cx="7.741" cy="3.097" rx="7.241" ry="2.597" fill="none"/></g><g fill="#eeee9b" stroke="#707070" stroke-width="1"><ellipse cx="7.741" cy="3.097" rx="7.741" ry="3.097" stroke="none"/><ellipse cx="7.741" cy="3.097" rx="7.241" ry="2.597" fill="none"/></g><line y1="1.806" transform="translate(0.258 3.355)" fill="none" stroke="#707070" stroke-width="1"/><line y2="2.064" transform="translate(15.224 3.097)" fill="none" stroke="#707070" stroke-width="1"/></g><path d="M4-.968h9.29V-2L18.45,1.1l-5.161,3.1V3.161H4Z" transform="translate(595.547 140.193)" fill="#eb5b5b"/></g><g transform="translate(-412.35 23.885)"><g transform="translate(582 141.29)"><g transform="translate(0 2.064)" fill="#fce6a8" stroke="#707070" stroke-width="1"><ellipse cx="7.741" cy="3.097" rx="7.741" ry="3.097" stroke="none"/><ellipse cx="7.741" cy="3.097" rx="7.241" ry="2.597" fill="none"/></g><g transform="translate(0 0)" fill="#eeee9b" stroke="#707070" stroke-width="1"><ellipse cx="7.741" cy="3.097" rx="7.741" ry="3.097" stroke="none"/><ellipse cx="7.741" cy="3.097" rx="7.241" ry="2.597" fill="none"/></g><line y1="1.806" transform="translate(0.258 3.355)" fill="none" stroke="#707070" stroke-width="1"/><line y2="2.064" transform="translate(15.224 3.097)" fill="none" stroke="#707070" stroke-width="1"/></g><g transform="translate(582 138.193)"><g transform="translate(0 2.064)" fill="#fce6a8" stroke="#707070" stroke-width="1"><ellipse cx="7.741" cy="3.097" rx="7.741" ry="3.097" stroke="none"/><ellipse cx="7.741" cy="3.097" rx="7.241" ry="2.597" fill="none"/></g><g fill="#eeee9b" stroke="#707070" stroke-width="1"><ellipse cx="7.741" cy="3.097" rx="7.741" ry="3.097" stroke="none"/><ellipse cx="7.741" cy="3.097" rx="7.241" ry="2.597" fill="none"/></g><line y1="1.806" transform="translate(0.258 3.355)" fill="none" stroke="#707070" stroke-width="1"/><line y2="2.064" transform="translate(15.224 3.097)" fill="none" stroke="#707070" stroke-width="1"/></g><g transform="translate(582 135.096)"><g transform="translate(0 2.064)" fill="#fce6a8" stroke="#707070" stroke-width="1"><ellipse cx="7.741" cy="3.097" rx="7.741" ry="3.097" stroke="none"/><ellipse cx="7.741" cy="3.097" rx="7.241" ry="2.597" fill="none"/></g><g fill="#eeee9b" stroke="#707070" stroke-width="1"><ellipse cx="7.741" cy="3.097" rx="7.741" ry="3.097" stroke="none"/><ellipse cx="7.741" cy="3.097" rx="7.241" ry="2.597" fill="none"/></g><line y1="1.806" transform="translate(0.258 3.355)" fill="none" stroke="#707070" stroke-width="1"/><line y2="2.064" transform="translate(15.224 3.097)" fill="none" stroke="#707070" stroke-width="1"/></g><g transform="translate(582 132)"><g transform="translate(0 2.064)" fill="#fce6a8" stroke="#707070" stroke-width="1"><ellipse cx="7.741" cy="3.097" rx="7.741" ry="3.097" stroke="none"/><ellipse cx="7.741" cy="3.097" rx="7.241" ry="2.597" fill="none"/></g><g fill="#eeee9b" stroke="#707070" stroke-width="1"><ellipse cx="7.741" cy="3.097" rx="7.741" ry="3.097" stroke="none"/><ellipse cx="7.741" cy="3.097" rx="7.241" ry="2.597" fill="none"/></g><line y1="1.806" transform="translate(0.258 3.355)" fill="none" stroke="#707070" stroke-width="1"/><line y2="2.064" transform="translate(15.224 3.097)" fill="none" stroke="#707070" stroke-width="1"/></g><path d="M4-.968h9.29V-2L18.45,1.1l-5.161,3.1V3.161H4Z" transform="translate(617.997 142.386) rotate(180)" fill="#80b157"/></g></g></svg>