<svg xmlns="http://www.w3.org/2000/svg" xmlns:xlink="http://www.w3.org/1999/xlink" width="800" height="400" viewBox="0 0 800 400"><defs><clipPath id="b"><rect width="800" height="400"/></clipPath></defs><g id="a" clip-path="url(#b)"><rect width="800" height="400" fill="#686fab"/><text transform="translate(56 96)" fill="#fff" font-size="37" font-family="SegoeUI-Light, Segoe UI" font-weight="300"><tspan x="0" y="0">Put in order </tspan><tspan x="0" y="40">your assets</tspan></text><text transform="translate(77 186)" fill="#fff" font-size="16" font-family="SegoeUI-Light, Segoe UI" font-weight="300"><tspan x="0" y="17">Save structured data about your </tspan><tspan x="0" y="41">staff &amp; belongings</tspan><tspan x="0" y="75">Know where they are</tspan><tspan x="0" y="109">Keep them save</tspan><tspan x="0" y="143">Get rid of junk</tspan></text><g transform="translate(-291 -280)"><path d="M116.365-20,374.912,127.741,202.547,226.235-56,78.494Z" transform="translate(679 438.806)" fill="#c7d7ec"/><path d="M0,58.494,172.365-40V58.494L0,156.988Z" transform="translate(623 360.312)" fill="#e4f1eb"/><path d="M0,0,258.547,147.741v98.494L0,98.494Z" transform="translate(795.365 320.312)" fill="#e4f1eb"/><path d="M11.318,0l55.4,30.779L34.4,49.247-21,18.468Z" transform="translate(784.046 340.318)" fill="#c8c8c8"/><path d="M16,39.091,102.182-4l86.182,43.091L102.182,88.338Z" transform="translate(693.182 496.676)" fill="#fff"/><path d="M7,2.468,39.318-16V64.026L7,82.494Z" transform="translate(811.449 387.098)" fill="#c7c7c7"/><path d="M0,0,27.7,15.39V95.416L0,80.026Z" transform="translate(763.046 358.786)" fill="#fff"/><path d="M0,0,27.7,15.39V95.416L0,80.026Z" transform="translate(790.748 374.176)" fill="#d4d4cc"/><g transform="translate(701.182 539.988)" fill="#c7c7c7"><path d="M 93.68233489990234 74.94425964355469 L 8.500006675720215 26.26864242553711 L 8.500006675720215 -34.13840484619141 L 93.68233489990234 14.53720951080322 L 93.68233489990234 74.94425964355469 Z" stroke="none"/><path d="M 8.999992370605469 -33.27681350708008 L 8.999992370605469 25.97847747802734 L 93.18233489990234 74.08266448974609 L 93.18233489990234 14.82737350463867 L 8.999992370605469 -33.27681350708008 M 7.999992370605469 -34.99999618530273 L 94.18233489990234 14.24704933166504 L 94.18233489990234 75.80584716796875 L 7.999992370605469 26.55880355834961 L 7.999992370605469 -34.99999618530273 Z" stroke="none" fill="#c7c7c7"/></g><g transform="translate(793.365 567.768)" fill="#c7c7c7"><path d="M 2.499996900558472 47.16485595703125 L 2.499996900558472 17.53720474243164 L 87.68232727050781 -31.1384105682373 L 87.68232727050781 -1.510759830474854 L 2.499996900558472 47.16485595703125 Z" stroke="none"/><path d="M 2.999999046325684 46.30326080322266 L 87.18232727050781 -1.800928592681885 L 87.18232727050781 -30.27681541442871 L 2.999999046325684 17.82737350463867 L 2.999999046325684 46.30326080322266 M 1.999998927116394 48.02644729614258 L 1.999998927116394 17.24704551696777 L 88.18232727050781 -32 L 88.18232727050781 -1.220600843429565 L 1.999998927116394 48.02644729614258 Z" stroke="none" fill="#c6c6c6"/></g><g transform="translate(893.859 396.65)" fill="#555353"><path d="M 54.90292358398438 82.86492156982422 L 0.5000017881393433 52.64107894897461 L 0.5000017881393433 16.84976005554199 L 54.90292358398438 47.07360458374023 L 54.90292358398438 82.86492156982422 Z" stroke="none"/><path d="M 1 17.69951629638672 L 1 52.34687805175781 L 54.40292358398438 82.01516723632813 L 54.40292358398438 47.36780548095703 L 1 17.69951629638672 M 0 16 L 55.40292358398438 46.77939987182617 L 55.40292358398438 83.71468353271484 L 0 52.93528366088867 L 0 16 Z" stroke="none" fill="#707070"/></g><path d="M4,6.468,34.779-12,53.247-5.844,22.468,12.624Z" transform="translate(643.624 480.053)" fill="#c7c7c7"/><path d="M0,6.468,30.779-12V12.624L0,31.091Z" transform="translate(647.624 443.118)" fill="#dfdada"/><path d="M0,0,18.468,6.156V30.779L0,24.624Z" transform="translate(678.403 461.897)" fill="#c7c7c7"/><path d="M4,6.468,34.779-12,53.247-5.844,22.468,12.624Z" transform="translate(643.624 473.897)" fill="#c7c7c7"/><path d="M0,0,18.468,6.156V30.779L0,24.624Z" transform="translate(647.624 480.365)" fill="#c7c7c7"/><path d="M116.365-20,374.912,127.741,202.547,226.235-56,78.494Z" transform="translate(679 438.806)" fill="#8eafb9"/><path d="M0,58.494,172.365-40V58.494L0,156.988Z" transform="translate(623 360.312)" fill="#527733"/><path d="M0,0,258.547,147.741v98.494L0,98.494Z" transform="translate(795.365 320.312)" fill="#80b157"/><path d="M11.318,0l55.4,30.779L34.4,49.247-21,18.468Z" transform="translate(784.046 340.318)" fill="#c8c8c8"/><path d="M16,39.091,102.182-4l86.182,43.091L102.182,88.338Z" transform="translate(693.182 496.676)" fill="#fff"/><path d="M7,2.468,39.318-16V64.026L7,82.494Z" transform="translate(811.449 387.098)" fill="#c7c7c7"/><path d="M0,0,27.7,15.39V95.416L0,80.026Z" transform="translate(763.046 358.786)" fill="#fff"/><path d="M0,0,27.7,15.39V95.416L0,80.026Z" transform="translate(790.748 374.176)" fill="#fcf7e4"/><g transform="translate(701.182 539.988)" fill="#ddd"><path d="M 93.68233489990234 74.94425964355469 L 8.500006675720215 26.26864242553711 L 8.500006675720215 -34.13840484619141 L 93.68233489990234 14.53720951080322 L 93.68233489990234 74.94425964355469 Z" stroke="none"/><path d="M 8.999992370605469 -33.27681350708008 L 8.999992370605469 25.97847747802734 L 93.18233489990234 74.08266448974609 L 93.18233489990234 14.82737350463867 L 8.999992370605469 -33.27681350708008 M 7.999992370605469 -34.99999618530273 L 94.18233489990234 14.24704933166504 L 94.18233489990234 75.80584716796875 L 7.999992370605469 26.55880355834961 L 7.999992370605469 -34.99999618530273 Z" stroke="none" fill="#c7c7c7"/></g><g transform="translate(793.365 567.768)" fill="#ddd"><path d="M 2.499996900558472 47.16485595703125 L 2.499996900558472 17.53720474243164 L 87.68232727050781 -31.1384105682373 L 87.68232727050781 -1.510759830474854 L 2.499996900558472 47.16485595703125 Z" stroke="none"/><path d="M 2.999999046325684 46.30326080322266 L 87.18232727050781 -1.800928592681885 L 87.18232727050781 -30.27681541442871 L 2.999999046325684 17.82737350463867 L 2.999999046325684 46.30326080322266 M 1.999998927116394 48.02644729614258 L 1.999998927116394 17.24704551696777 L 88.18232727050781 -32 L 88.18232727050781 -1.220600843429565 L 1.999998927116394 48.02644729614258 Z" stroke="none" fill="#c6c6c6"/></g><g transform="translate(893.859 396.65)" fill="#555353"><path d="M 54.90292358398438 82.86492156982422 L 0.5000017881393433 52.64107894897461 L 0.5000017881393433 16.84976005554199 L 54.90292358398438 47.07360458374023 L 54.90292358398438 82.86492156982422 Z" stroke="none"/><path d="M 1 17.69951629638672 L 1 52.34687805175781 L 54.40292358398438 82.01516723632813 L 54.40292358398438 47.36780548095703 L 1 17.69951629638672 M 0 16 L 55.40292358398438 46.77939987182617 L 55.40292358398438 83.71468353271484 L 0 52.93528366088867 L 0 16 Z" stroke="none" fill="#707070"/></g><path d="M4,6.468,34.779-12,53.247-5.844,22.468,12.624Z" transform="translate(643.624 480.053)" fill="#c7c7c7"/><path d="M0,6.468,30.779-12V12.624L0,31.091Z" transform="translate(647.624 443.118)" fill="#dfdada"/><path d="M0,0,18.468,6.156V30.779L0,24.624Z" transform="translate(678.403 461.897)" fill="#c7c7c7"/><path d="M4,6.468,34.779-12,53.247-5.844,22.468,12.624Z" transform="translate(643.624 473.897)" fill="#ddd"/><path d="M0,0,18.468,6.156V30.779L0,24.624Z" transform="translate(647.624 480.365)" fill="#c7c7c7"/><path d="M28.36,8,90.324,38.779,25.687,75.715,3.737,63.4s6.851-3.256,21.546-12.312,3-22.714-6.156-27.7-6.156-6.156-6.156-6.156Z" transform="translate(963.992 506.222)" fill="#ddd"/><path d="M0,36.935,64.637,0V21.546L0,58.481Z" transform="translate(989.275 545.001)" fill="#cdcdc9"/><path d="M38-4,59.546,7.976V29.857L38,17.546Z" transform="translate(929.729 573.625)" fill="#cdcdc9"/><g transform="translate(1015.054 477.91)" fill="#555353"><path d="M 5.5 82.152099609375 L 5.5 54.85277557373047 L 13.73381996154785 27.40670776367188 L 13.73381996154785 54.70603179931641 L 5.5 82.152099609375 Z" stroke="none"/><path d="M 13.23381996154785 30.81345367431641 L 6 54.92618560791016 L 6 78.74535369873047 L 13.23381996154785 54.63262176513672 L 13.23381996154785 30.81345367431641 M 14.23381996154785 24 L 14.23381996154785 54.77940368652344 L 5 85.55880737304688 L 5 54.77940368652344 L 14.23381996154785 24 Z" stroke="none" fill="#707070"/></g><g transform="translate(1018.132 477.91)" fill="#707070"><path d="M 5.5 82.152099609375 L 5.5 54.85277557373047 L 13.73381996154785 27.40670776367188 L 13.73381996154785 54.70603179931641 L 5.5 82.152099609375 Z" stroke="none"/><path d="M 13.23381996154785 30.81345367431641 L 6 54.92618560791016 L 6 78.74535369873047 L 13.23381996154785 54.63262176513672 L 13.23381996154785 30.81345367431641 M 14.23381996154785 24 L 14.23381996154785 54.77940368652344 L 5 85.55880737304688 L 5 54.77940368652344 L 14.23381996154785 24 Z" stroke="none" fill="#707070"/></g><g transform="translate(1020.054 532.69)" fill="#707070" stroke="#707070" stroke-width="1"><rect width="3.078" height="30.779" stroke="none"/><rect x="0.5" y="0.5" width="2.078" height="29.779" fill="none"/></g><g transform="translate(1049.054 497.91)" fill="#707070"><path d="M -26.29406929016113 34.27940368652344 L -28.32798767089844 34.27940368652344 L -19.39416694641113 4.500001907348633 L -17.36024856567383 4.500001907348633 L -26.29406929016113 34.27940368652344 Z" stroke="none"/><path d="M -19.02214241027832 5 L -27.65596389770508 33.77940368652344 L -26.66609382629395 33.77940368652344 L -18.03227233886719 5 L -19.02214241027832 5 M -19.76617813110352 4 L -16.6882381439209 4 L -25.92205810546875 34.77940368652344 L -28.99999809265137 34.77940368652344 L -19.76617813110352 4 Z" stroke="none" fill="#707070"/></g><path d="M0,0,12.312,6.156V30.779L0,24.624Z" transform="translate(976.963 523.456)" fill="#ddd"/><path d="M23.39-2,8,7.234V31.857L23.39,19.546Z" transform="translate(981.275 522.378)" fill="#ddd"/><g transform="translate(850.456 308)" fill="#fff"><path d="M 103.4227600097656 61.05880355834961 L 17.24044036865234 61.05880355834961 C 11.57600784301758 61.05880355834961 6.967641353607178 56.4504508972168 6.967641353607178 50.78601837158203 L 6.967641353607178 50.03601837158203 L 6.275341033935547 50.32448577880859 L -9.859265327453613 57.0472412109375 L 6.821191310882568 40.36676788330078 L 6.967641353607178 40.22031784057617 L 6.967641353607178 40.01321792602539 L 6.967641353607178 10.77278518676758 C 6.967641353607178 5.108351707458496 11.57600784301758 0.5000017881393433 17.24044036865234 0.5000017881393433 L 103.4227600097656 0.5000017881393433 C 109.0871887207031 0.5000017881393433 113.695556640625 5.108351707458496 113.695556640625 10.77278518676758 L 113.695556640625 50.78601837158203 C 113.695556640625 56.4504508972168 109.0871887207031 61.05880355834961 103.4227600097656 61.05880355834961 Z" stroke="none"/><path d="M 17.24042510986328 1 C 11.85169219970703 1 7.467643737792969 5.384052276611328 7.467643737792969 10.77278518676758 L 7.467643737792969 40.01321792602539 L 7.467643737792969 40.42743682861328 L 7.17474365234375 40.72031784057617 L -7.718513488769531 55.61357116699219 L 6.083023071289063 49.86293411254883 L 7.467643737792969 49.28601837158203 L 7.467643737792969 50.78601837158203 C 7.467643737792969 56.17475128173828 11.85169219970703 60.55880355834961 17.24042510986328 60.55880355834961 L 103.4227600097656 60.55880355834961 C 108.8114929199219 60.55880355834961 113.1955413818359 56.17475128173828 113.1955413818359 50.78601837158203 L 113.1955413818359 10.77278518676758 C 113.1955413818359 5.384052276611328 108.8114929199219 1 103.4227600097656 1 L 17.24042510986328 1 M 17.24042510986328 0 L 103.4227600097656 0 C 109.3724060058594 0 114.1955413818359 4.823135375976563 114.1955413818359 10.77278518676758 L 114.1955413818359 50.78601837158203 C 114.1955413818359 56.73565292358398 109.3724060058594 61.55880355834961 103.4227600097656 61.55880355834961 L 17.24042510986328 61.55880355834961 C 11.29079437255859 61.55880355834961 6.467643737792969 56.73565292358398 6.467643737792969 50.78601837158203 L -12.00000762939453 58.48086929321289 L 6.467643737792969 40.01321792602539 L 6.467643737792969 10.77278518676758 C 6.467643737792969 4.823135375976563 11.29079437255859 0 17.24042510986328 0 Z" stroke="none" fill="#707070"/></g><g transform="translate(690.403 409.572)" fill="#fff"><path d="M 103.4227600097656 61.05880355834961 L 17.24044036865234 61.05880355834961 C 11.57600784301758 61.05880355834961 6.967641353607178 56.4504508972168 6.967641353607178 50.78601837158203 L 6.967641353607178 50.03601837158203 L 6.275341033935547 50.32448577880859 L -9.859265327453613 57.0472412109375 L 6.821191310882568 40.36676788330078 L 6.967641353607178 40.22031784057617 L 6.967641353607178 40.01321792602539 L 6.967641353607178 10.77278518676758 C 6.967641353607178 5.108351707458496 11.57600784301758 0.5000017881393433 17.24044036865234 0.5000017881393433 L 103.4227600097656 0.5000017881393433 C 109.0871887207031 0.5000017881393433 113.695556640625 5.108351707458496 113.695556640625 10.77278518676758 L 113.695556640625 50.78601837158203 C 113.695556640625 56.4504508972168 109.0871887207031 61.05880355834961 103.4227600097656 61.05880355834961 Z" stroke="none"/><path d="M 17.24042510986328 1 C 11.85169219970703 1 7.467643737792969 5.384052276611328 7.467643737792969 10.77278518676758 L 7.467643737792969 40.01321792602539 L 7.467643737792969 40.42743682861328 L 7.17474365234375 40.72031784057617 L -7.718513488769531 55.61357116699219 L 6.083023071289063 49.86293411254883 L 7.467643737792969 49.28601837158203 L 7.467643737792969 50.78601837158203 C 7.467643737792969 56.17475128173828 11.85169219970703 60.55880355834961 17.24042510986328 60.55880355834961 L 103.4227600097656 60.55880355834961 C 108.8114929199219 60.55880355834961 113.1955413818359 56.17475128173828 113.1955413818359 50.78601837158203 L 113.1955413818359 10.77278518676758 C 113.1955413818359 5.384052276611328 108.8114929199219 1 103.4227600097656 1 L 17.24042510986328 1 M 17.24042510986328 0 L 103.4227600097656 0 C 109.3724060058594 0 114.1955413818359 4.823135375976563 114.1955413818359 10.77278518676758 L 114.1955413818359 50.78601837158203 C 114.1955413818359 56.73565292358398 109.3724060058594 61.55880355834961 103.4227600097656 61.55880355834961 L 17.24042510986328 61.55880355834961 C 11.29079437255859 61.55880355834961 6.467643737792969 56.73565292358398 6.467643737792969 50.78601837158203 L -12.00000762939453 58.48086929321289 L 6.467643737792969 40.01321792602539 L 6.467643737792969 10.77278518676758 C 6.467643737792969 4.823135375976563 11.29079437255859 0 17.24042510986328 0 Z" stroke="none" fill="#707070"/></g><g transform="translate(945.872 394.182)" fill="#fff"><path d="M -9.860445976257324 38.01613235473633 L 6.866240978240967 15.92831039428711 L 6.967641353607178 15.79441070556641 L 6.967641353607178 15.62646102905273 L 6.967641353607178 5.925044059753418 C 6.967641353607178 4.533044338226318 7.996207714080811 3.200727462768555 9.863874435424805 2.173510789871216 C 11.82602405548096 1.094327569007874 14.44574069976807 0.4999942183494568 17.24044036865234 0.4999942183494568 L 103.4227600097656 0.4999942183494568 C 106.2174606323242 0.4999942183494568 108.8371734619141 1.094327569007874 110.7993240356445 2.173510789871216 C 112.6669921875 3.200727462768555 113.695556640625 4.533044338226318 113.695556640625 5.925044059753418 L 113.695556640625 27.93231010437012 C 113.695556640625 29.32429504394531 112.6669921875 30.6566104888916 110.7993240356445 31.68382835388184 C 108.8371734619141 32.76301193237305 106.2174606323242 33.35734558105469 103.4227600097656 33.35734558105469 L 17.24044036865234 33.35734558105469 C 14.44574069976807 33.35734558105469 11.82602405548096 32.76301193237305 9.863874435424805 31.68382835388184 C 7.996207714080811 30.6566104888916 6.967641353607178 29.32429504394531 6.967641353607178 27.93231010437012 L 6.967641353607178 27.00774383544922 L 6.193924427032471 27.51389503479004 L -9.860445976257324 38.01613235473633 Z" stroke="none"/><path d="M 17.24042510986328 0.9999923706054688 C 14.52855682373047 0.9999923706054688 11.99442291259766 1.572345733642578 10.10484313964844 2.611610412597656 C 8.428855895996094 3.533393859863281 7.467643737792969 4.741092681884766 7.467643737792969 5.925025939941406 L 7.467643737792969 15.62646102905273 L 7.467643737792969 15.96237754821777 L 7.264839172363281 16.23017692565918 L -7.720863342285156 36.01899337768555 L 5.920204162597656 27.09546089172363 L 7.467643737792969 26.08317756652832 L 7.467643737792969 27.93231201171875 C 7.467643737792969 29.11624526977539 8.428855895996094 30.32394409179688 10.10484313964844 31.2457275390625 C 11.99442291259766 32.28499603271484 14.52855682373047 32.85734558105469 17.24042510986328 32.85734558105469 L 103.4227600097656 32.85734558105469 C 106.1346435546875 32.85734558105469 108.6687774658203 32.28499603271484 110.5583419799805 31.2457275390625 C 112.2343215942383 30.32394409179688 113.1955413818359 29.11624526977539 113.1955413818359 27.93231201171875 L 113.1955413818359 5.925025939941406 C 113.1955413818359 4.741092681884766 112.2343215942383 3.533393859863281 110.5583419799805 2.611610412597656 C 108.6687774658203 1.572345733642578 106.1346435546875 0.9999923706054688 103.4227600097656 0.9999923706054688 L 17.24042510986328 0.9999923706054688 M 17.24042510986328 -7.62939453125e-06 L 103.4227600097656 -7.62939453125e-06 C 109.3724060058594 -7.62939453125e-06 114.1955413818359 2.652729034423828 114.1955413818359 5.925025939941406 L 114.1955413818359 27.93231201171875 C 114.1955413818359 31.20461082458496 109.3724060058594 33.85734558105469 103.4227600097656 33.85734558105469 L 17.24042510986328 33.85734558105469 C 11.29079437255859 33.85734558105469 6.467643737792969 31.20461082458496 6.467643737792969 27.93231201171875 L -12.00000762939453 40.01322937011719 L 6.467643737792969 15.62646102905273 L 6.467643737792969 5.925025939941406 C 6.467643737792969 2.652729034423828 11.29079437255859 -7.62939453125e-06 17.24042510986328 -7.62939453125e-06 Z" stroke="none" fill="#707070"/></g><line x2="27.701" transform="translate(881.547 323.39)" fill="none" stroke="#707070" stroke-width="1"/><line x2="27.701" transform="translate(881.547 332.624)" fill="none" stroke="#707070" stroke-width="1"/><line x2="27.701" transform="translate(881.547 341.857)" fill="none" stroke="#707070" stroke-width="1"/><line x2="27.701" transform="translate(881.547 351.091)" fill="none" stroke="#707070" stroke-width="1"/><line x2="27.701" transform="translate(915.404 323.39)" fill="none" stroke="#707070" stroke-width="1"/><line x2="27.701" transform="translate(915.404 332.624)" fill="none" stroke="#707070" stroke-width="1"/><line x2="27.701" transform="translate(915.404 341.857)" fill="none" stroke="#707070" stroke-width="1"/><line x2="27.701" transform="translate(915.404 351.091)" fill="none" stroke="#707070" stroke-width="1"/><line x2="6.156" transform="translate(869.235 323.39)" fill="none" stroke="#707070" stroke-width="1"/><line x2="6.156" transform="translate(869.235 332.624)" fill="none" stroke="#707070" stroke-width="1"/><line x2="6.156" transform="translate(869.235 341.857)" fill="none" stroke="#707070" stroke-width="1"/><line x2="6.156" transform="translate(869.235 351.091)" fill="none" stroke="#707070" stroke-width="1"/><text transform="translate(867.696 358.857)" fill="#6f6f6f" font-size="19" font-family="ArialMT, Arial"><tspan x="0" y="0">...</tspan></text><line x2="27.701" transform="translate(980.041 406.494)" fill="none" stroke="#707070" stroke-width="1"/><line x2="27.701" transform="translate(980.041 415.728)" fill="none" stroke="#707070" stroke-width="1"/><line x2="27.701" transform="translate(1013.898 406.494)" fill="none" stroke="#707070" stroke-width="1"/><line x2="27.701" transform="translate(1013.898 415.728)" fill="none" stroke="#707070" stroke-width="1"/><line x2="6.156" transform="translate(967.729 406.494)" fill="none" stroke="#707070" stroke-width="1"/><line x2="6.156" transform="translate(967.729 415.728)" fill="none" stroke="#707070" stroke-width="1"/><line x2="27.701" transform="translate(724.572 421.884)" fill="none" stroke="#707070" stroke-width="1"/><line x2="27.701" transform="translate(724.572 431.118)" fill="none" stroke="#707070" stroke-width="1"/><line x2="27.701" transform="translate(724.572 440.351)" fill="none" stroke="#707070" stroke-width="1"/><line x2="27.701" transform="translate(724.572 449.585)" fill="none" stroke="#707070" stroke-width="1"/><line x2="27.701" transform="translate(724.572 458.819)" fill="none" stroke="#707070" stroke-width="1"/><line x2="27.701" transform="translate(758.429 421.884)" fill="none" stroke="#707070" stroke-width="1"/><line x2="27.701" transform="translate(758.429 431.118)" fill="none" stroke="#707070" stroke-width="1"/><line x2="27.701" transform="translate(758.429 440.351)" fill="none" stroke="#707070" stroke-width="1"/><line x2="27.701" transform="translate(758.429 449.585)" fill="none" stroke="#707070" stroke-width="1"/><line x2="27.701" transform="translate(758.429 458.819)" fill="none" stroke="#707070" stroke-width="1"/><line x2="6.156" transform="translate(712.26 421.884)" fill="none" stroke="#707070" stroke-width="1"/><line x2="6.156" transform="translate(712.26 431.118)" fill="none" stroke="#707070" stroke-width="1"/><line x2="6.156" transform="translate(712.26 440.351)" fill="none" stroke="#707070" stroke-width="1"/><line x2="6.156" transform="translate(712.26 449.585)" fill="none" stroke="#707070" stroke-width="1"/><line x2="6.156" transform="translate(712.26 458.819)" fill="none" stroke="#707070" stroke-width="1"/></g><text transform="translate(57 203)" fill="#fff" font-size="16" font-family="SegoeUI-Light, Segoe UI" font-weight="300"><tspan x="0" y="0">-</tspan></text><text transform="translate(57 259)" fill="#fff" font-size="16" font-family="SegoeUI-Light, Segoe UI" font-weight="300"><tspan x="0" y="0">-</tspan></text><text transform="translate(57 294)" fill="#fff" font-size="16" font-family="SegoeUI-Light, Segoe UI" font-weight="300"><tspan x="0" y="0">-</tspan></text><text transform="translate(57 329)" fill="#fff" font-size="16" font-family="SegoeUI-Light, Segoe UI" font-weight="300"><tspan x="0" y="0">-</tspan></text></g></svg>